<svg width="79" height="23" viewBox="0 0 79 23" fill="none" xmlns="http://www.w3.org/2000/svg">
<path d="M28.7673 16H23.3213V6.564H28.6973V7.768H24.7633V10.68H28.2493V11.884H24.7633V14.796H28.7673V16ZM36.3227 16H34.9507V11.52C34.9507 11.0253 34.8247 10.6473 34.5727 10.386C34.33 10.1247 34.0034 9.994 33.5927 9.994C33.1074 9.994 32.692 10.1853 32.3467 10.568C32.0014 10.9413 31.8287 11.4687 31.8287 12.15V16H30.4567V8.902H31.8287V10.12C32.2487 9.24267 32.986 8.804 34.0407 8.804C34.7407 8.804 35.296 9.01867 35.7067 9.448C36.1174 9.87733 36.3227 10.4607 36.3227 11.198V16ZM44.1456 15.398C44.1456 16.49 43.833 17.3113 43.2076 17.862C42.5916 18.422 41.7983 18.702 40.8276 18.702C39.913 18.702 39.143 18.548 38.5176 18.24V16.854C39.115 17.246 39.8383 17.442 40.6876 17.442C42.0783 17.442 42.7736 16.756 42.7736 15.384V14.656C42.3163 15.4213 41.6303 15.804 40.7156 15.804C39.913 15.804 39.227 15.51 38.6576 14.922C38.0883 14.3247 37.8036 13.4847 37.8036 12.402C37.8036 11.3567 38.0696 10.498 38.6016 9.826C39.1336 9.14467 39.8383 8.804 40.7156 8.804C41.6583 8.804 42.3443 9.20533 42.7736 10.008V8.902H44.1456V15.398ZM39.2456 12.374C39.2456 13.1113 39.4136 13.6713 39.7496 14.054C40.095 14.4367 40.501 14.628 40.9676 14.628C41.453 14.628 41.873 14.4413 42.2276 14.068C42.5916 13.6853 42.7736 13.1533 42.7736 12.472C42.7736 11.632 42.601 11.0113 42.2556 10.61C41.9196 10.2087 41.509 10.008 41.0236 10.008C40.473 10.008 40.039 10.2273 39.7216 10.666C39.4043 11.0953 39.2456 11.6647 39.2456 12.374ZM47.4299 16H46.0439V6.102H47.4299V16ZM50.8616 16H49.4756V8.902H50.8616V16ZM51.0296 6.732C51.0296 6.96533 50.9456 7.166 50.7776 7.334C50.6096 7.502 50.4042 7.586 50.1616 7.586C49.9189 7.586 49.7136 7.50667 49.5456 7.348C49.3869 7.18 49.3076 6.97467 49.3076 6.732C49.3076 6.48933 49.3869 6.284 49.5456 6.116C49.7136 5.948 49.9189 5.864 50.1616 5.864C50.4042 5.864 50.6096 5.948 50.7776 6.116C50.9456 6.284 51.0296 6.48933 51.0296 6.732ZM57.2892 14.04C57.2892 14.6747 57.0652 15.174 56.6172 15.538C56.1692 15.8927 55.5626 16.07 54.7972 16.07C53.9572 16.07 53.2572 15.93 52.6972 15.65V14.348C53.3506 14.7493 54.0272 14.95 54.7272 14.95C55.0912 14.95 55.3712 14.8753 55.5672 14.726C55.7726 14.5767 55.8752 14.3807 55.8752 14.138C55.8752 13.9327 55.7959 13.7507 55.6372 13.592C55.4786 13.424 55.3152 13.3027 55.1472 13.228C54.9886 13.144 54.7132 13.018 54.3212 12.85C53.2106 12.3927 52.6552 11.7207 52.6552 10.834C52.6552 10.2087 52.8886 9.71867 53.3552 9.364C53.8219 9.00933 54.4052 8.832 55.1052 8.832C55.8706 8.832 56.4679 8.93467 56.8972 9.14V10.386C56.4399 10.1153 55.8519 9.98 55.1332 9.98C54.8066 9.98 54.5452 10.0547 54.3492 10.204C54.1626 10.3533 54.0692 10.5493 54.0692 10.792C54.0692 10.8573 54.0739 10.9227 54.0832 10.988C54.1019 11.044 54.1299 11.1047 54.1672 11.17C54.2046 11.226 54.2372 11.2773 54.2652 11.324C54.3026 11.3613 54.3586 11.4033 54.4332 11.45C54.5079 11.4967 54.5639 11.5387 54.6012 11.576C54.6479 11.604 54.7179 11.6413 54.8112 11.688C54.9139 11.7347 54.9886 11.772 55.0352 11.8C55.0819 11.8187 55.1612 11.856 55.2732 11.912C55.3946 11.9587 55.4786 11.9913 55.5252 12.01C56.0759 12.2527 56.5052 12.528 56.8132 12.836C57.1306 13.1347 57.2892 13.536 57.2892 14.04ZM64.5825 16H63.2105V11.52C63.2105 11.0347 63.0845 10.6613 62.8325 10.4C62.5898 10.1293 62.2678 9.994 61.8665 9.994C61.3998 9.994 60.9845 10.1713 60.6205 10.526C60.2658 10.8807 60.0885 11.422 60.0885 12.15V16H58.7165V6.102H60.0885V10.12C60.4898 9.24267 61.2225 8.804 62.2865 8.804C62.9771 8.804 63.5325 9.01867 63.9525 9.448C64.3725 9.87733 64.5825 10.4747 64.5825 11.24V16Z" fill="white"/>
<path d="M7.01937 18C10.3438 18 13.0387 15.0899 13.0387 11.5C13.0387 7.91015 10.3438 5 7.01937 5C3.69496 5 1 7.91015 1 11.5C1 15.0899 3.69496 18 7.01937 18Z" stroke="white" stroke-linecap="round" stroke-linejoin="round"/>
<path d="M1 11.5H13.0387" stroke="white" stroke-linecap="round" stroke-linejoin="round"/>
<path d="M7.01935 5C8.52496 6.77993 9.3806 9.08982 9.4271 11.5C9.3806 13.9102 8.52496 16.2201 7.01935 18C5.51374 16.2201 4.6581 13.9102 4.6116 11.5C4.6581 9.08982 5.51374 6.77993 7.01935 5V5Z" stroke="white" stroke-linecap="round" stroke-linejoin="round"/>
<path d="M70 10L74 14L78 10" stroke="white" stroke-linecap="round" stroke-linejoin="round"/>
</svg>
